<!DOCTYPE svg PUBLIC "-//W3C//DTD SVG 1.1//EN" "http://www.w3.org/Graphics/SVG/1.1/DTD/svg11.dtd">
<!-- Uploaded to: SVG Repo, www.svgrepo.com, Transformed by: SVG Repo Mixer Tools -->
<svg width="149px" height="149px" viewBox="-15.92 -15.92 107.64 107.64" xmlns="http://www.w3.org/2000/svg" fill="#037E8C" stroke="#037E8C" stroke-width="1.667688" transform="rotate(0)matrix(-1, 0, 0, 1, 0, 0)">
<g id="SVGRepo_bgCarrier" stroke-width="0"/>
<g id="SVGRepo_tracerCarrier" stroke-linecap="round" stroke-linejoin="round" stroke="#CCCCCC" stroke-width="1.819296"> <g id="Group_65" data-name="Group 65" transform="translate(-831.568 -384.448)"> <path id="Path_57" data-name="Path 57" d="M833.068,460.252a1.5,1.5,0,0,1-1.061-2.561l33.557-33.56a2.53,2.53,0,0,0,0-3.564l-33.557-33.558a1.5,1.5,0,0,1,2.122-2.121l33.556,33.558a5.53,5.53,0,0,1,0,7.807l-33.557,33.56A1.5,1.5,0,0,1,833.068,460.252Z" fill="#037E8C"/> </g> </g>
<g id="SVGRepo_iconCarrier"> <g id="Group_65" data-name="Group 65" transform="translate(-831.568 -384.448)"> <path id="Path_57" data-name="Path 57" d="M833.068,460.252a1.5,1.5,0,0,1-1.061-2.561l33.557-33.56a2.53,2.53,0,0,0,0-3.564l-33.557-33.558a1.5,1.5,0,0,1,2.122-2.121l33.556,33.558a5.53,5.53,0,0,1,0,7.807l-33.557,33.56A1.5,1.5,0,0,1,833.068,460.252Z" fill="#037E8C"/> </g> </g>
</svg>